<svg viewBox="0 0 256 256" fill="none" xmlns="http://www.w3.org/2000/svg">
<path d="M208.49 191.51C210.744 193.764 212.01 196.822 212.01 200.01C212.01 203.198 210.744 206.256 208.49 208.51C206.235 210.764 203.178 212.031 199.99 212.031C196.801 212.031 193.744 210.764 191.49 208.51L128 145L64.4896 208.49C62.2352 210.744 59.1777 212.011 55.9896 212.011C52.8014 212.011 49.7439 210.744 47.4896 208.49C45.2352 206.236 43.9688 203.178 43.9688 199.99C43.9687 196.802 45.2352 193.744 47.4896 191.49L111 128L47.5096 64.49C45.2552 62.2357 43.9888 59.1781 43.9888 55.99C43.9888 52.8019 45.2552 49.7444 47.5096 47.49C49.7639 45.2357 52.8214 43.9692 56.0096 43.9692C59.1977 43.9692 62.2552 45.2357 64.5096 47.49L128 111L191.51 47.48C193.764 45.2257 196.821 43.9592 200.01 43.9592C203.198 43.9592 206.255 45.2257 208.51 47.48C210.764 49.7344 212.03 52.7919 212.03 55.98C212.03 59.1681 210.764 62.2257 208.51 64.48L145 128L208.49 191.51Z"
fill="#FFFFFF"/>
</svg>
