<svg width="64" height="64" viewBox="0 0 64 64" fill="none" xmlns="http://www.w3.org/2000/svg">
<g clip-path="url(#clip0_122_1172)">
<mask id="mask0_122_1172" style="mask-type:alpha" maskUnits="userSpaceOnUse" x="0" y="0" width="64" height="64">
<circle cx="32" cy="32" r="32" fill="#F578A5"/>
</mask>
<g mask="url(#mask0_122_1172)">
<circle cx="32" cy="32" r="32" fill="white"/>
<path d="M17.2872 63.5362V64.2292H17.9802H47.6614H48.3544V63.5362V51.0683C48.3544 49.9358 47.4568 49.0071 46.3249 48.9685L19.4599 48.0526C18.2721 48.0121 17.2872 48.964 17.2872 50.1525V63.5362Z" fill="#272727" stroke="#272727" stroke-width="1.38604"/>
<g clip-path="url(#clip1_122_1172)">
<path d="M23.4457 22.4699C29.9671 13.4026 27.162 6.02203 27.1698 6.01328C27.0316 5.64366 27.2192 5.23201 27.5888 5.09374C27.7752 5.024 27.9823 5.03524 28.1601 5.12468C39.93 10.7567 44.9949 18.0271 45.9649 24.6004C46.3504 27.1543 46.1094 29.7636 45.2626 32.2037C44.4865 34.4552 43.1939 36.4936 41.4883 38.1556C38.2074 41.3241 33.6224 42.7847 29.0972 41.3039C27.9396 40.9262 26.8473 40.3722 25.8589 39.6612C23.876 38.2381 22.3719 36.2465 21.5456 33.9498C20.6689 31.4935 20.641 28.8142 21.4665 26.3402C21.9223 24.9555 22.59 23.65 23.4457 22.4699Z" fill="#272727"/>
<path d="M27.3132 6.24728C27.0265 5.97613 27.0139 5.5239 27.285 5.23727C27.5562 4.95065 28.0084 4.938 28.295 5.20915C28.3162 5.2291 28.3359 5.25031 28.3545 5.27268C28.3807 5.29632 34.0633 11.2529 34.8752 22.7658L34.8836 22.8737C35.0589 25.5646 34.9723 28.2661 34.6253 30.9402L38.511 27.9624C38.8365 27.7392 39.2812 27.8221 39.5043 28.1476C39.7063 28.4422 39.6597 28.8407 39.3952 29.0807L34.317 32.9605C33.1802 39.6442 29.1725 49.0997 34.4779 55.0177C34.7334 55.3184 34.6968 55.7693 34.396 56.0248C34.1098 56.2681 33.6842 56.2481 33.4219 55.9792C27.0599 48.888 31.6892 40.1032 32.9562 32.5065L32.9728 32.4C33.488 29.3769 33.6646 26.3058 33.4992 23.2437L28.9319 19.8972C28.6061 19.6745 28.5225 19.2299 28.7452 18.9041C28.9679 18.5784 29.4125 18.4948 29.7383 18.7175C29.7518 18.7267 29.765 18.7364 29.7778 18.7465L33.3167 21.3519C32.2128 11.3721 27.3339 6.27121 27.3132 6.24728Z" fill="white"/>
</g>
</g>
</g>
<defs>
<clipPath id="clip0_122_1172">
<rect width="64" height="64" fill="white"/>
</clipPath>
<clipPath id="clip1_122_1172">
<rect width="39.2747" height="39.2747" fill="white" transform="translate(3.77222 31.3508) rotate(-48)"/>
</clipPath>
</defs>
</svg>
