<svg width="76" height="100" viewBox="0 0 76 100" fill="none" xmlns="http://www.w3.org/2000/svg">
<path d="M38 52.381C34.0417 52.381 30.6771 50.9921 27.9062 48.2143C25.1354 45.4365 23.75 42.0635 23.75 38.0952C23.75 34.127 25.1354 30.754 27.9062 27.9762C30.6771 25.1984 34.0417 23.8095 38 23.8095C41.9583 23.8095 45.3229 25.1984 48.0938 27.9762C50.8646 30.754 52.25 34.127 52.25 38.0952C52.25 42.0635 50.8646 45.4365 48.0938 48.2143C45.3229 50.9921 41.9583 52.381 38 52.381ZM9.5 100V63.2143C6.49167 59.881 4.15625 56.0714 2.49375 51.7857C0.83125 47.5 0 42.9365 0 38.0952C0 27.4603 3.68125 18.4524 11.0437 11.0714C18.4062 3.69048 27.3917 0 38 0C48.6083 0 57.5937 3.69048 64.9562 11.0714C72.3187 18.4524 76 27.4603 76 38.0952C76 42.9365 75.1687 47.5 73.5062 51.7857C71.8437 56.0714 69.5083 59.881 66.5 63.2143V100L38 90.4762L9.5 100ZM38 66.6667C45.9167 66.6667 52.6458 63.8889 58.1875 58.3333C63.7292 52.7778 66.5 46.0317 66.5 38.0952C66.5 30.1587 63.7292 23.4127 58.1875 17.8571C52.6458 12.3016 45.9167 9.52381 38 9.52381C30.0833 9.52381 23.3542 12.3016 17.8125 17.8571C12.2708 23.4127 9.5 30.1587 9.5 38.0952C9.5 46.0317 12.2708 52.7778 17.8125 58.3333C23.3542 63.8889 30.0833 66.6667 38 66.6667ZM19 85.8333L38 80.9524L57 85.8333V71.0714C54.2292 72.6587 51.2406 73.9087 48.0344 74.8214C44.8281 75.7341 41.4833 76.1905 38 76.1905C34.5167 76.1905 31.1719 75.7341 27.9656 74.8214C24.7594 73.9087 21.7708 72.6587 19 71.0714V85.8333Z" fill="#808080"/>
<path d="M38 52.381C34.0417 52.381 30.6771 50.9921 27.9062 48.2143C25.1354 45.4365 23.75 42.0635 23.75 38.0952C23.75 34.127 25.1354 30.754 27.9062 27.9762C30.6771 25.1984 34.0417 23.8095 38 23.8095C41.9583 23.8095 45.3229 25.1984 48.0938 27.9762C50.8646 30.754 52.25 34.127 52.25 38.0952C52.25 42.0635 50.8646 45.4365 48.0938 48.2143C45.3229 50.9921 41.9583 52.381 38 52.381ZM9.5 100V63.2143C6.49167 59.881 4.15625 56.0714 2.49375 51.7857C0.83125 47.5 0 42.9365 0 38.0952C0 27.4603 3.68125 18.4524 11.0437 11.0714C18.4062 3.69048 27.3917 0 38 0C48.6083 0 57.5937 3.69048 64.9562 11.0714C72.3187 18.4524 76 27.4603 76 38.0952C76 42.9365 75.1687 47.5 73.5062 51.7857C71.8437 56.0714 69.5083 59.881 66.5 63.2143V100L38 90.4762L9.5 100ZM38 66.6667C45.9167 66.6667 52.6458 63.8889 58.1875 58.3333C63.7292 52.7778 66.5 46.0317 66.5 38.0952C66.5 30.1587 63.7292 23.4127 58.1875 17.8571C52.6458 12.3016 45.9167 9.52381 38 9.52381C30.0833 9.52381 23.3542 12.3016 17.8125 17.8571C12.2708 23.4127 9.5 30.1587 9.5 38.0952C9.5 46.0317 12.2708 52.7778 17.8125 58.3333C23.3542 63.8889 30.0833 66.6667 38 66.6667ZM19 85.8333L38 80.9524L57 85.8333V71.0714C54.2292 72.6587 51.2406 73.9087 48.0344 74.8214C44.8281 75.7341 41.4833 76.1905 38 76.1905C34.5167 76.1905 31.1719 75.7341 27.9656 74.8214C24.7594 73.9087 21.7708 72.6587 19 71.0714V85.8333Z" fill="#994B00" fill-opacity="0.05"/>
</svg>
