<svg width="92" height="68" viewBox="0 0 92 68" fill="none" xmlns="http://www.w3.org/2000/svg">
<path d="M21.1016 67.1301C17.6294 67.1301 14.678 65.9148 12.2475 63.4842C9.81692 61.0537 8.60164 58.1023 8.60164 54.63H0.268311V8.79671C0.268311 6.50505 1.08428 4.54324 2.71623 2.9113C4.34817 1.27935 6.30998 0.463379 8.60164 0.463379H66.935V17.13H79.435L91.935 33.7967V54.63H83.6016C83.6016 58.1023 82.3864 61.0537 79.9558 63.4842C77.5253 65.9148 74.5739 67.1301 71.1016 67.1301C67.6294 67.1301 64.678 65.9148 62.2475 63.4842C59.8169 61.0537 58.6016 58.1023 58.6016 54.63H33.6016C33.6016 58.1023 32.3864 61.0537 29.9558 63.4842C27.5253 65.9148 24.5739 67.1301 21.1016 67.1301ZM21.1016 58.7967C22.2822 58.7967 23.2718 58.3974 24.0704 57.5988C24.869 56.8002 25.2683 55.8106 25.2683 54.63C25.2683 53.4495 24.869 52.4599 24.0704 51.6613C23.2718 50.8627 22.2822 50.4634 21.1016 50.4634C19.9211 50.4634 18.9315 50.8627 18.1329 51.6613C17.3343 52.4599 16.935 53.4495 16.935 54.63C16.935 55.8106 17.3343 56.8002 18.1329 57.5988C18.9315 58.3974 19.9211 58.7967 21.1016 58.7967ZM8.60164 46.2967H11.935C13.1155 45.0467 14.4697 44.0398 15.9975 43.2759C17.5253 42.512 19.2266 42.13 21.1016 42.13C22.9766 42.13 24.678 42.512 26.2058 43.2759C27.7336 44.0398 29.0878 45.0467 30.2683 46.2967H58.6016V8.79671H8.60164V46.2967ZM71.1016 58.7967C72.2822 58.7967 73.2718 58.3974 74.0704 57.5988C74.869 56.8002 75.2683 55.8106 75.2683 54.63C75.2683 53.4495 74.869 52.4599 74.0704 51.6613C73.2718 50.8627 72.2822 50.4634 71.1016 50.4634C69.9211 50.4634 68.9315 50.8627 68.1329 51.6613C67.3343 52.4599 66.935 53.4495 66.935 54.63C66.935 55.8106 67.3343 56.8002 68.1329 57.5988C68.9315 58.3974 69.9211 58.7967 71.1016 58.7967ZM66.935 37.9634H84.6433L75.2683 25.4634H66.935V37.9634Z" fill="#808080"/>
<path d="M21.1016 67.1301C17.6294 67.1301 14.678 65.9148 12.2475 63.4842C9.81692 61.0537 8.60164 58.1023 8.60164 54.63H0.268311V8.79671C0.268311 6.50505 1.08428 4.54324 2.71623 2.9113C4.34817 1.27935 6.30998 0.463379 8.60164 0.463379H66.935V17.13H79.435L91.935 33.7967V54.63H83.6016C83.6016 58.1023 82.3864 61.0537 79.9558 63.4842C77.5253 65.9148 74.5739 67.1301 71.1016 67.1301C67.6294 67.1301 64.678 65.9148 62.2475 63.4842C59.8169 61.0537 58.6016 58.1023 58.6016 54.63H33.6016C33.6016 58.1023 32.3864 61.0537 29.9558 63.4842C27.5253 65.9148 24.5739 67.1301 21.1016 67.1301ZM21.1016 58.7967C22.2822 58.7967 23.2718 58.3974 24.0704 57.5988C24.869 56.8002 25.2683 55.8106 25.2683 54.63C25.2683 53.4495 24.869 52.4599 24.0704 51.6613C23.2718 50.8627 22.2822 50.4634 21.1016 50.4634C19.9211 50.4634 18.9315 50.8627 18.1329 51.6613C17.3343 52.4599 16.935 53.4495 16.935 54.63C16.935 55.8106 17.3343 56.8002 18.1329 57.5988C18.9315 58.3974 19.9211 58.7967 21.1016 58.7967ZM8.60164 46.2967H11.935C13.1155 45.0467 14.4697 44.0398 15.9975 43.2759C17.5253 42.512 19.2266 42.13 21.1016 42.13C22.9766 42.13 24.678 42.512 26.2058 43.2759C27.7336 44.0398 29.0878 45.0467 30.2683 46.2967H58.6016V8.79671H8.60164V46.2967ZM71.1016 58.7967C72.2822 58.7967 73.2718 58.3974 74.0704 57.5988C74.869 56.8002 75.2683 55.8106 75.2683 54.63C75.2683 53.4495 74.869 52.4599 74.0704 51.6613C73.2718 50.8627 72.2822 50.4634 71.1016 50.4634C69.9211 50.4634 68.9315 50.8627 68.1329 51.6613C67.3343 52.4599 66.935 53.4495 66.935 54.63C66.935 55.8106 67.3343 56.8002 68.1329 57.5988C68.9315 58.3974 69.9211 58.7967 71.1016 58.7967ZM66.935 37.9634H84.6433L75.2683 25.4634H66.935V37.9634Z" fill="#994B00" fill-opacity="0.05"/>
</svg>
