<svg width="31" height="31" viewBox="0 0 31 31" fill="none" xmlns="http://www.w3.org/2000/svg">
<path d="M5.16667 25.8334C4.45625 25.8334 3.84809 25.5804 3.34219 25.0745C2.83629 24.5686 2.58333 23.9604 2.58333 23.25V7.75002C2.58333 7.0396 2.83629 6.43144 3.34219 5.92554C3.84809 5.41964 4.45625 5.16669 5.16667 5.16669H25.8333C26.5438 5.16669 27.1519 5.41964 27.6578 5.92554C28.1637 6.43144 28.4167 7.0396 28.4167 7.75002V23.25C28.4167 23.9604 28.1637 24.5686 27.6578 25.0745C27.1519 25.5804 26.5438 25.8334 25.8333 25.8334H5.16667ZM15.5 16.7917L5.16667 10.3334V23.25H25.8333V10.3334L15.5 16.7917ZM15.5 14.2084L25.8333 7.75002H5.16667L15.5 14.2084ZM5.16667 10.3334V7.75002V23.25V10.3334Z" fill="#E8E0D2"/>
</svg>
