<svg width="31" height="32" viewBox="0 0 31 32" fill="none" xmlns="http://www.w3.org/2000/svg">
<path d="M9.04163 28.9166C8.33121 28.9166 7.72305 28.6637 7.21715 28.1578C6.71124 27.6519 6.45829 27.0437 6.45829 26.3333C6.45829 25.6229 6.71124 25.0147 7.21715 24.5088C7.72305 24.0029 8.33121 23.75 9.04163 23.75C9.75204 23.75 10.3602 24.0029 10.8661 24.5088C11.372 25.0147 11.625 25.6229 11.625 26.3333C11.625 27.0437 11.372 27.6519 10.8661 28.1578C10.3602 28.6637 9.75204 28.9166 9.04163 28.9166ZM21.9583 28.9166C21.2479 28.9166 20.6397 28.6637 20.1338 28.1578C19.6279 27.6519 19.375 27.0437 19.375 26.3333C19.375 25.6229 19.6279 25.0147 20.1338 24.5088C20.6397 24.0029 21.2479 23.75 21.9583 23.75C22.6687 23.75 23.2769 24.0029 23.7828 24.5088C24.2887 25.0147 24.5416 25.6229 24.5416 26.3333C24.5416 27.0437 24.2887 27.6519 23.7828 28.1578C23.2769 28.6637 22.6687 28.9166 21.9583 28.9166ZM7.94371 8.24998L11.0437 14.7083H20.0854L23.6375 8.24998H7.94371ZM6.71663 5.66665H25.7687C26.2638 5.66665 26.6406 5.88731 26.8989 6.32863C27.1572 6.76994 27.168 7.21665 26.9312 7.66873L22.3458 15.9354C22.109 16.366 21.7915 16.6996 21.3932 16.9364C20.9949 17.1732 20.559 17.2916 20.0854 17.2916H10.4625L9.04163 19.875H24.5416V22.4583H9.04163C8.07288 22.4583 7.34093 22.0331 6.84579 21.1828C6.35065 20.3324 6.32913 19.4875 6.78121 18.6479L8.52496 15.4833L3.87496 5.66665H1.29163V3.08331H5.48954L6.71663 5.66665Z" fill="#E8E0D2"/>
</svg>
