<svg width="28" height="28" viewBox="0 0 28 28" fill="none" xmlns="http://www.w3.org/2000/svg">
<path d="M25.6 27.5L16.15 18.05C15.4 18.65 14.5375 19.125 13.5625 19.475C12.5875 19.825 11.55 20 10.45 20C7.72495 20 5.4187 19.0563 3.5312 17.1688C1.6437 15.2813 0.699951 12.975 0.699951 10.25C0.699951 7.525 1.6437 5.21875 3.5312 3.33125C5.4187 1.44375 7.72495 0.5 10.45 0.5C13.175 0.5 15.4812 1.44375 17.3687 3.33125C19.2562 5.21875 20.2 7.525 20.2 10.25C20.2 11.35 20.025 12.3875 19.675 13.3625C19.325 14.3375 18.85 15.2 18.25 15.95L27.7 25.4L25.6 27.5ZM10.45 17C12.325 17 13.9187 16.3438 15.2312 15.0313C16.5437 13.7188 17.2 12.125 17.2 10.25C17.2 8.375 16.5437 6.78125 15.2312 5.46875C13.9187 4.15625 12.325 3.5 10.45 3.5C8.57495 3.5 6.9812 4.15625 5.6687 5.46875C4.3562 6.78125 3.69995 8.375 3.69995 10.25C3.69995 12.125 4.3562 13.7188 5.6687 15.0313C6.9812 16.3438 8.57495 17 10.45 17Z" fill="#E8E0D2"/>
</svg>
