<svg width="45" height="45" viewBox="0 0 45 45" fill="none" xmlns="http://www.w3.org/2000/svg">
<path d="M31.3594 7.8125C30.2344 7.8125 29.3906 8.65625 29.3906 9.78125C29.3906 10.9063 30.2344 11.75 31.3594 11.75C32.4844 11.75 33.3281 10.9063 33.3281 9.78125C33.3281 8.65625 32.4844 7.8125 31.3594 7.8125Z" fill="#E8E0D2"/>
<path d="M22.5 10.3438C17.8594 10.3438 14.2031 14.1406 14.2031 18.6406C14.2031 23.1406 18 26.9375 22.5 26.9375C27 26.9375 30.7969 23.1406 30.7969 18.6406C30.7969 14.1406 27.1406 10.3438 22.5 10.3438ZM22.5 23.9844C19.5469 23.9844 17.1562 21.5938 17.1562 18.6406C17.1562 15.6875 19.5469 13.2969 22.5 13.2969C25.4531 13.2969 27.8437 15.6875 27.8437 18.6406C27.8437 21.5938 25.4531 23.9844 22.5 23.9844Z" fill="#E8E0D2"/>
<path d="M29.25 1.625H15.8906C10.125 1.625 5.625 6.125 5.625 11.75V25.1094C5.625 30.7344 10.125 35.2344 15.75 35.2344H29.1094C34.7344 35.2344 39.2344 30.7344 39.2344 25.1094V11.75C39.375 6.125 34.875 1.625 29.25 1.625ZM36.1406 25.25C36.1406 29.0469 33.0469 32.2812 29.1094 32.2812H15.75C11.9531 32.2812 8.71875 29.1875 8.71875 25.25V11.8906C8.71875 8.09375 11.8125 4.85938 15.75 4.85938H29.1094C32.9063 4.85938 36.1406 7.95313 36.1406 11.8906V25.25Z" fill="#E8E0D2"/>
</svg>
