<svg width="84" height="75" viewBox="0 0 84 75" fill="none" xmlns="http://www.w3.org/2000/svg">
<path d="M37.8625 75V66.6667H70.9628V37.0833C70.9628 28.9583 68.1527 22.066 62.5325 16.4062C56.9124 10.7465 50.0682 7.91667 42 7.91667C33.9319 7.91667 27.0877 10.7465 21.4676 16.4062C15.8474 22.066 13.0373 28.9583 13.0373 37.0833V62.5H8.89981C6.62417 62.5 4.67609 61.684 3.05555 60.0521C1.43502 58.4201 0.624756 56.4583 0.624756 54.1667V45.8333C0.624756 44.375 0.98679 43.0035 1.71086 41.7188C2.43492 40.434 3.45207 39.4097 4.76229 38.6458L5.0726 33.125C5.62427 28.4028 6.98621 24.0278 9.15841 20C11.3306 15.9722 14.0545 12.4653 17.33 9.47917C20.6056 6.49306 24.3638 4.16667 28.6048 2.5C32.8458 0.833333 37.3108 0 42 0C46.6892 0 51.1371 0.833333 55.3436 2.5C59.5501 4.16667 63.3083 6.47569 66.6183 9.42708C69.9284 12.3785 72.6522 15.8681 74.79 19.8958C76.9277 23.9236 78.3069 28.2986 78.9275 33.0208L79.2378 38.4375C80.548 39.0625 81.5652 40 82.2892 41.25C83.0133 42.5 83.3753 43.8194 83.3753 45.2083V54.7917C83.3753 56.1806 83.0133 57.5 82.2892 58.75C81.5652 60 80.548 60.9375 79.2378 61.5625V66.6667C79.2378 68.9583 78.4275 70.9201 76.807 72.5521C75.1865 74.184 73.2384 75 70.9628 75H37.8625ZM29.5875 45.8333C28.4152 45.8333 27.4325 45.434 26.6395 44.6354C25.8464 43.8368 25.4499 42.8472 25.4499 41.6667C25.4499 40.4861 25.8464 39.4965 26.6395 38.6979C27.4325 37.8993 28.4152 37.5 29.5875 37.5C30.7598 37.5 31.7424 37.8993 32.5354 38.6979C33.3285 39.4965 33.725 40.4861 33.725 41.6667C33.725 42.8472 33.3285 43.8368 32.5354 44.6354C31.7424 45.434 30.7598 45.8333 29.5875 45.8333ZM54.4126 45.8333C53.2403 45.8333 52.2577 45.434 51.4646 44.6354C50.6716 43.8368 50.2751 42.8472 50.2751 41.6667C50.2751 40.4861 50.6716 39.4965 51.4646 38.6979C52.2577 37.8993 53.2403 37.5 54.4126 37.5C55.5849 37.5 56.5676 37.8993 57.3606 38.6979C58.1537 39.4965 58.5502 40.4861 58.5502 41.6667C58.5502 42.8472 58.1537 43.8368 57.3606 44.6354C56.5676 45.434 55.5849 45.8333 54.4126 45.8333ZM17.2783 39.375C16.7956 32.0139 19.0023 25.6944 23.8984 20.4167C28.7944 15.1389 34.8973 12.5 42.2069 12.5C48.3443 12.5 53.7403 14.4618 58.395 18.3854C63.0497 22.309 65.8598 27.3264 66.8252 33.4375C60.55 33.3681 54.7747 31.6667 49.4993 28.3333C44.224 25 40.1726 20.4861 37.3453 14.7917C36.242 20.3472 33.9146 25.2951 30.3632 29.6354C26.8119 33.9757 22.4502 37.2222 17.2783 39.375Z" fill="#808080"/>
<path d="M37.8625 75V66.6667H70.9628V37.0833C70.9628 28.9583 68.1527 22.066 62.5325 16.4062C56.9124 10.7465 50.0682 7.91667 42 7.91667C33.9319 7.91667 27.0877 10.7465 21.4676 16.4062C15.8474 22.066 13.0373 28.9583 13.0373 37.0833V62.5H8.89981C6.62417 62.5 4.67609 61.684 3.05555 60.0521C1.43502 58.4201 0.624756 56.4583 0.624756 54.1667V45.8333C0.624756 44.375 0.98679 43.0035 1.71086 41.7188C2.43492 40.434 3.45207 39.4097 4.76229 38.6458L5.0726 33.125C5.62427 28.4028 6.98621 24.0278 9.15841 20C11.3306 15.9722 14.0545 12.4653 17.33 9.47917C20.6056 6.49306 24.3638 4.16667 28.6048 2.5C32.8458 0.833333 37.3108 0 42 0C46.6892 0 51.1371 0.833333 55.3436 2.5C59.5501 4.16667 63.3083 6.47569 66.6183 9.42708C69.9284 12.3785 72.6522 15.8681 74.79 19.8958C76.9277 23.9236 78.3069 28.2986 78.9275 33.0208L79.2378 38.4375C80.548 39.0625 81.5652 40 82.2892 41.25C83.0133 42.5 83.3753 43.8194 83.3753 45.2083V54.7917C83.3753 56.1806 83.0133 57.5 82.2892 58.75C81.5652 60 80.548 60.9375 79.2378 61.5625V66.6667C79.2378 68.9583 78.4275 70.9201 76.807 72.5521C75.1865 74.184 73.2384 75 70.9628 75H37.8625ZM29.5875 45.8333C28.4152 45.8333 27.4325 45.434 26.6395 44.6354C25.8464 43.8368 25.4499 42.8472 25.4499 41.6667C25.4499 40.4861 25.8464 39.4965 26.6395 38.6979C27.4325 37.8993 28.4152 37.5 29.5875 37.5C30.7598 37.5 31.7424 37.8993 32.5354 38.6979C33.3285 39.4965 33.725 40.4861 33.725 41.6667C33.725 42.8472 33.3285 43.8368 32.5354 44.6354C31.7424 45.434 30.7598 45.8333 29.5875 45.8333ZM54.4126 45.8333C53.2403 45.8333 52.2577 45.434 51.4646 44.6354C50.6716 43.8368 50.2751 42.8472 50.2751 41.6667C50.2751 40.4861 50.6716 39.4965 51.4646 38.6979C52.2577 37.8993 53.2403 37.5 54.4126 37.5C55.5849 37.5 56.5676 37.8993 57.3606 38.6979C58.1537 39.4965 58.5502 40.4861 58.5502 41.6667C58.5502 42.8472 58.1537 43.8368 57.3606 44.6354C56.5676 45.434 55.5849 45.8333 54.4126 45.8333ZM17.2783 39.375C16.7956 32.0139 19.0023 25.6944 23.8984 20.4167C28.7944 15.1389 34.8973 12.5 42.2069 12.5C48.3443 12.5 53.7403 14.4618 58.395 18.3854C63.0497 22.309 65.8598 27.3264 66.8252 33.4375C60.55 33.3681 54.7747 31.6667 49.4993 28.3333C44.224 25 40.1726 20.4861 37.3453 14.7917C36.242 20.3472 33.9146 25.2951 30.3632 29.6354C26.8119 33.9757 22.4502 37.2222 17.2783 39.375Z" fill="#994B00" fill-opacity="0.05"/>
</svg>
